<svg xmlns="http://www.w3.org/2000/svg" width="16" height="16">
  <defs/>
  <path fill="#FFF" d="M12.798 0H3.066A3.07 3.07 0 000 3.066v9.732a3.07 3.07 0 003.066 3.066h9.733a3.069 3.069 0 003.065-3.066V3.065A3.069 3.069 0 0012.798 0zm.88 1.828l.35-.001v2.689l-2.68.008-.009-2.688 2.339-.008zm-8.01 4.476A2.791 2.791 0 017.932 5.14a2.79 2.79 0 012.264 1.164c.33.459.528 1.02.528 1.628a2.796 2.796 0 01-2.792 2.792A2.795 2.795 0 015.14 7.932c0-.608.197-1.17.528-1.628zm8.65 6.494c0 .839-.682 1.52-1.52 1.52H3.066c-.838 0-1.52-.681-1.52-1.52V6.304h2.368a4.315 4.315 0 00-.32 1.628 4.343 4.343 0 004.338 4.338 4.343 4.343 0 004.338-4.338c0-.576-.116-1.125-.32-1.628h2.368v6.494z" opacity=".67"/>
</svg>