<svg xmlns="http://www.w3.org/2000/svg" width="17" height="16">
  <defs/>
  <path fill="#FFF" d="M4.135 4.969v10.323H.698V4.969h3.437zm.22-3.188a1.65 1.65 0 01-.527 1.271c-.358.34-.828.51-1.411.51h-.021c-.57 0-1.028-.17-1.375-.51A1.707 1.707 0 01.5 1.782c0-.515.179-.94.536-1.277C1.394.168 1.861 0 2.437 0c.577 0 1.039.168 1.386.505.347.337.524.762.531 1.276zM16.5 9.375v5.917h-3.427V9.77c0-.73-.14-1.3-.422-1.714-.281-.413-.72-.62-1.318-.62-.437 0-.803.12-1.099.36-.295.24-.515.536-.661.89-.076.209-.115.49-.115.844v5.76H6.031c.014-2.77.021-5.017.021-6.739 0-1.722-.003-2.75-.01-3.083l-.01-.5h3.426v1.5h-.02c.138-.222.28-.417.427-.584.145-.166.342-.347.588-.541.247-.195.549-.346.906-.453a4.13 4.13 0 011.193-.162c1.188 0 2.142.394 2.865 1.182.722.789 1.083 1.943 1.083 3.464z" opacity=".671"/>
</svg>