<svg xmlns="http://www.w3.org/2000/svg" width="17" height="13">
  <defs/>
  <path fill="#FFF" d="M16.5 1.543a6.871 6.871 0 01-1.645 1.696 9.315 9.315 0 01-.376 3.06 9.52 9.52 0 01-1.172 2.523 9.917 9.917 0 01-1.873 2.137c-.724.62-1.597 1.114-2.62 1.483a9.586 9.586 0 01-3.278.553A9.106 9.106 0 01.5 11.523c.237.027.5.04.792.04a6.42 6.42 0 004.07-1.4 3.197 3.197 0 01-1.908-.655 3.207 3.207 0 01-1.157-1.62c.223.034.43.051.62.051.29 0 .578-.037.862-.112a3.226 3.226 0 01-1.883-1.132A3.168 3.168 0 011.15 4.61v-.04c.46.257.954.395 1.482.416a3.275 3.275 0 01-1.066-1.168 3.195 3.195 0 01-.396-1.563c0-.596.149-1.147.447-1.655a9.296 9.296 0 002.99 2.421 9.137 9.137 0 003.771 1.01 3.642 3.642 0 01-.081-.75c0-.908.32-1.681.96-2.32a3.16 3.16 0 012.32-.96c.947 0 1.745.345 2.395 1.036a6.43 6.43 0 002.081-.792 3.184 3.184 0 01-1.441 1.807 6.534 6.534 0 001.888-.508z" opacity=".67"/>
</svg>