<svg xmlns="http://www.w3.org/2000/svg" width="16" height="12">
  <defs/>
  <path fill="#FFF" fill-rule="nonzero" d="M6.342 7.688l4.316-2.23-4.316-2.256v4.486zM7.992 0c.998 0 1.963.013 2.894.04.93.027 1.612.055 2.046.085l.652.036a5.948 5.948 0 01.356.04l.21.04c.098.018.183.041.254.071.071.03.155.069.25.116.095.048.187.106.276.174a2.115 2.115 0 01.397.401c.057.075.143.249.259.522.116.274.194.574.236.9.048.381.085.787.112 1.218.026.431.043.769.049 1.013v1.57c.006.861-.048 1.723-.16 2.586a3.558 3.558 0 01-.224.887c-.107.265-.202.447-.285.548l-.125.152c-.083.09-.17.168-.259.236-.089.069-.181.125-.276.17a6.392 6.392 0 01-.25.111c-.071.03-.156.054-.254.072l-.214.04a5.452 5.452 0 01-.352.04c-1.493.113-3.357.17-5.592.17-1.231-.012-2.3-.032-3.207-.059a69.52 69.52 0 01-1.788-.066l-.437-.036-.321-.036a4.234 4.234 0 01-.486-.089 2.74 2.74 0 01-.455-.187 1.784 1.784 0 01-.642-.53c-.057-.075-.143-.25-.259-.523a3.396 3.396 0 01-.236-.9c-.048-.38-.085-.787-.112-1.218A28.647 28.647 0 010 6.582v-1.57c-.005-.862.048-1.724.161-2.586.042-.327.116-.623.223-.888.107-.264.202-.447.285-.548L.794.838C.877.75.964.67 1.053.602c.089-.068.181-.126.276-.174.095-.047.179-.086.25-.116.071-.03.156-.053.254-.071l.21-.04c.041-.01.11-.018.205-.027L2.4.16C3.892.054 5.756 0 7.992 0z" opacity=".671"/>
</svg>